<svg version="1.1" id="Layer_1" xmlns="http://www.w3.org/2000/svg" xmlns:xlink="http://www.w3.org/1999/xlink" x="0px" y="0px"
	 width="100%" viewBox="0 0 1280 1280" enable-background="new 0 0 1280 1280" xml:space="preserve">
<path fill="#000000" opacity="1.000000" stroke="none" 
	d="
M834.000000,1281.000000 
	C557.500000,1281.000000 281.500000,1280.991211 5.500034,1281.093262 
	C1.750855,1281.094727 0.906191,1280.249023 0.907064,1276.500000 
	C1.005783,852.833313 1.005783,429.166656 0.907064,5.500021 
	C0.906191,1.750944 1.750944,0.906189 5.500021,0.907062 
	C429.166656,1.005797 852.833313,1.005797 1276.500000,0.907062 
	C1280.249023,0.906189 1281.093872,1.750943 1281.093018,5.500021 
	C1280.994263,429.166656 1280.994263,852.833313 1281.093018,1276.500000 
	C1281.093872,1280.249023 1280.249390,1281.096924 1276.499878,1281.094116 
	C1129.166626,1280.983398 981.833313,1281.000000 834.000000,1281.000000 
z"/>
<path fill="#FE3232" opacity="1.000000" stroke="none" 
	d="
M555.855103,560.616821 
	C559.077820,559.106201 562.252747,557.892822 565.527100,557.080017 
	C567.524658,556.584106 569.043152,557.178528 570.279846,559.451721 
	C577.917969,573.491760 585.229614,587.718994 593.702881,601.294250 
	C601.381226,613.595703 611.487427,623.671448 622.350098,633.118530 
	C627.679993,637.753906 633.121155,642.180420 639.020508,646.081970 
	C641.155029,647.493591 642.353088,647.864258 644.805298,646.163757 
	C666.301392,631.256958 684.289368,613.232971 696.615234,589.890320 
	C702.175842,579.359680 708.177307,569.061707 713.718872,558.521484 
	C714.987305,556.108826 716.063965,555.828674 718.200684,557.010986 
	C720.502991,558.284912 723.012817,558.988647 725.846558,559.555969 
	C729.471497,561.940552 733.467590,561.543457 737.102112,561.810730 
	C748.176636,562.624817 759.269165,561.758972 770.589966,560.256226 
	C776.569153,557.859497 782.666809,558.186646 788.552307,557.141663 
	C807.935242,553.700195 827.458008,551.013672 846.312622,545.057312 
	C846.721497,544.928040 847.263000,545.218628 848.962341,545.554260 
	C844.893066,549.589600 841.429565,553.242310 837.731079,556.639343 
	C832.520935,561.424805 827.262329,566.174683 821.784546,570.645813 
	C817.905273,573.812195 820.887573,577.271545 821.284546,580.241821 
	C823.416992,596.195862 823.774963,612.111145 822.064270,628.105835 
	C820.641785,641.407043 817.822754,654.415771 814.031982,667.624390 
	C813.255615,668.581848 812.548950,668.699402 811.463623,668.218262 
	C811.110168,662.816406 810.919006,657.653320 811.019653,652.495911 
	C811.374023,634.342957 806.638794,617.273743 800.188293,600.549011 
	C798.433899,596.000305 796.735596,591.429810 795.032593,586.861450 
	C793.744202,583.405151 789.704834,582.184692 787.078308,584.486572 
	C785.605286,585.777588 786.880432,586.918030 787.473938,587.853271 
	C792.587463,595.911438 796.031677,604.543518 798.167358,613.906311 
	C801.574707,628.843750 799.784058,643.190857 794.315796,657.152039 
	C786.810974,676.313171 773.421692,690.293335 754.667542,698.561584 
	C742.115906,704.095459 728.923584,706.144897 714.919495,704.249756 
	C695.979431,701.686707 680.579773,693.310669 667.877136,679.381714 
	C660.131104,670.887756 655.058838,660.947510 651.953430,649.953064 
	C650.987000,646.531250 649.925537,644.467773 646.247253,647.869812 
	C643.147095,650.737061 639.831970,649.752991 636.700500,647.334167 
	C634.302795,645.481995 632.834290,646.318542 632.011047,649.192017 
	C623.882324,677.566284 605.112732,695.322205 576.919861,702.841492 
	C555.060059,708.671570 534.355286,704.093811 516.187378,691.339294 
	C498.949463,679.237488 488.318359,662.178101 484.967590,640.976501 
	C482.004272,622.226807 485.698792,604.922668 495.547119,588.778564 
	C496.286499,587.566467 498.450012,585.770203 496.082825,584.158081 
	C493.860901,582.644897 489.389526,584.478760 488.380951,587.251648 
	C484.881592,596.872681 481.411957,606.505554 478.051666,616.175842 
	C473.107422,630.404236 472.596466,645.168274 472.897217,660.483887 
	C472.016785,661.041565 471.567932,660.682800 471.551697,659.881836 
	C471.451477,654.938782 471.515320,649.999268 471.513489,645.064270 
	C471.600769,651.178955 471.132599,657.288757 471.987671,663.787903 
	C472.015991,665.533386 471.672577,666.805054 470.548187,668.544434 
	C466.164551,656.217590 463.595184,643.139099 462.083374,629.432007 
	C462.394836,625.209595 461.925232,621.438965 461.612244,617.266724 
	C461.249786,616.356140 461.111938,615.815491 461.035583,614.827759 
	C460.652649,608.055176 461.335114,601.763367 461.999603,595.044067 
	C461.991486,592.651367 462.021759,590.684937 461.948059,588.299927 
	C462.267822,584.456543 461.929291,581.047302 462.783661,577.565002 
	C463.493134,574.673462 463.322632,571.886536 460.012177,569.057861 
	C452.635681,562.754761 445.649017,555.953003 438.210297,549.674500 
	C436.986053,548.641235 435.137848,547.367310 436.263184,545.604553 
	C437.329376,543.934387 438.955719,545.627686 440.265503,546.003601 
	C456.242493,550.588257 472.522430,553.662476 488.958008,556.030884 
	C497.331268,557.237427 505.666107,558.710693 514.320923,560.252441 
	C525.880127,562.355103 537.227478,562.567871 548.540527,561.498413 
	C550.984741,561.267395 553.465088,561.854187 555.855103,560.616821 
z"/>
<path fill="#FE3232" opacity="1.000000" stroke="none" 
	d="
M924.088318,379.713074 
	C921.834595,388.274170 917.599365,395.673431 913.757202,403.126495 
	C905.691895,418.771759 897.484192,434.395569 887.907349,449.190735 
	C875.934448,467.687622 863.262817,485.688049 846.838928,500.657257 
	C836.389160,510.181427 825.576233,519.283447 814.365417,527.893311 
	C803.752991,536.043701 792.657959,543.494873 780.730652,549.616333 
	C779.430054,550.283813 777.782166,552.149597 776.353821,550.425903 
	C775.108887,548.923584 776.724121,547.249451 777.580505,546.017822 
	C787.775574,531.355225 795.859985,515.518066 803.948486,499.035614 
	C795.045288,501.486816 786.836426,504.712830 778.656982,508.003998 
	C763.055237,514.281738 747.750610,521.190430 733.788635,530.684326 
	C724.498230,537.001587 716.623108,544.816956 709.021484,553.148743 
	C699.684814,563.382263 690.696350,573.871033 681.942993,584.582581 
	C678.529663,588.759521 675.280640,593.070374 671.936401,597.304138 
	C671.040649,598.438171 670.340027,599.874390 668.047485,599.884399 
	C670.103271,592.589966 673.094116,585.848816 676.001343,579.092834 
	C684.519470,559.297913 694.163269,540.067993 706.068787,522.079102 
	C710.479187,515.415100 715.151855,508.748474 720.695129,503.045532 
	C734.187256,489.164886 747.295837,474.815887 763.075928,463.348389 
	C764.285828,462.469147 765.552551,461.085876 766.886963,461.640167 
	C768.786499,462.429291 767.953857,464.566833 767.967896,466.136230 
	C768.033691,473.464966 767.997070,480.794678 767.997070,489.054382 
	C774.118286,484.324097 778.079468,478.453522 782.755493,473.381195 
	C790.956543,464.485077 799.418762,455.914978 808.405457,447.807281 
	C816.958557,440.090759 825.757385,432.704010 834.837463,425.625732 
	C843.985840,418.494263 853.538513,411.940674 863.151978,405.471130 
	C863.953857,404.931488 865.006042,403.738617 866.129517,404.772644 
	C867.661865,406.182922 865.661377,406.767426 865.136414,407.438416 
	C859.992737,414.013519 854.594238,420.391815 849.533020,427.028107 
	C844.893738,433.111237 843.739319,440.506989 841.651489,448.533478 
	C863.946655,437.284668 883.879883,424.524414 899.821533,406.476166 
	C906.396545,399.032227 911.903503,390.632507 917.724365,382.543884 
	C919.129028,380.592010 920.490051,378.659729 922.588623,376.944397 
	C923.986145,377.402863 923.971680,378.399567 924.088318,379.713074 
z"/>
<path fill="#FE3232" opacity="1.000000" stroke="none" 
	d="
M517.749268,462.410675 
	C524.291321,465.492798 529.452454,470.431183 534.466858,475.216675 
	C552.140198,492.083038 569.986084,508.940216 582.572693,530.226501 
	C594.873657,551.029541 605.217041,572.826965 613.899231,595.387573 
	C614.382446,596.643188 616.400818,598.678894 614.275635,599.656921 
	C612.739014,600.364075 611.901489,598.057007 610.890137,596.764465 
	C600.768860,583.829346 590.592224,570.952515 579.470032,558.823242 
	C572.194702,550.889099 564.879456,543.086731 556.687195,536.063904 
	C550.288086,530.578186 543.116760,526.368408 535.795837,522.465637 
	C518.520020,513.255920 500.392120,505.948273 481.928192,499.474640 
	C481.199768,499.219177 480.410126,499.138367 479.043457,498.847168 
	C484.667755,510.675629 490.614410,521.641052 496.941101,532.399780 
	C500.078430,537.734924 503.440002,542.938416 506.716583,548.191284 
	C507.195221,548.958679 508.556244,549.571411 507.574738,550.608093 
	C506.845245,551.378540 505.820435,550.833496 504.837219,550.445251 
	C496.748932,547.251404 489.482910,542.534790 482.418793,537.654419 
	C467.704041,527.488464 454.036255,515.996460 440.520569,504.250397 
	C417.985779,484.666199 402.007324,460.235779 387.004883,434.961456 
	C378.673309,420.925476 370.960571,406.551025 363.939148,391.417511 
	C364.760376,388.773529 361.288269,386.226440 364.680054,383.986084 
	C369.543091,384.948456 370.337982,389.520477 372.538666,392.475067 
	C378.446869,400.407166 384.298706,408.312714 391.571869,415.065308 
	C403.505280,426.144684 416.915253,435.139221 431.113770,443.015259 
	C434.073975,444.657318 437.047333,446.275604 440.704315,448.283539 
	C441.344391,442.008728 438.504303,437.064575 436.459076,432.021301 
	C434.290741,426.674530 430.523102,422.277802 426.929199,417.851532 
	C423.336731,413.427032 419.458344,409.234680 416.251770,404.374054 
	C453.725830,426.810272 485.961731,455.297424 515.228577,488.475525 
	C515.228577,484.449036 515.228577,480.422546 515.580933,476.147461 
	C517.214844,478.484131 516.100037,481.239380 516.500000,483.548126 
	C516.500122,478.562500 516.484192,473.237793 516.508911,467.913208 
	C516.517273,466.109253 516.168823,464.218262 517.749268,462.410675 
z"/>
<path fill="#FE3232" opacity="1.000000" stroke="none" 
	d="
M637.086548,461.060425 
	C642.355957,458.604797 645.350586,462.747101 649.001587,465.934143 
	C656.899841,472.828613 665.056213,479.427338 673.354919,486.354004 
	C666.668884,492.968018 660.254761,499.047791 654.165466,505.437073 
	C650.550293,509.230225 647.354431,513.441711 644.199341,517.637512 
	C643.635376,518.387451 641.999329,519.823303 643.645203,521.063354 
	C645.715210,522.622986 645.415161,519.937561 646.017822,519.330994 
	C660.264893,504.990936 677.383545,496.095001 697.087280,491.992126 
	C699.323792,491.526398 701.660095,491.349915 703.777771,490.570740 
	C705.189819,490.051239 706.190857,489.797211 707.340454,490.878937 
	C708.852600,492.301819 707.309937,493.464172 706.825928,494.377747 
	C698.710266,509.694489 691.460693,525.443604 683.211975,540.705627 
	C674.274170,557.242676 666.361023,574.332764 657.965637,591.164001 
	C653.364624,600.388184 648.719116,609.590637 644.014465,618.762268 
	C643.406982,619.946411 643.558533,621.905212 641.508667,621.967957 
	C639.281982,622.036255 638.990540,620.018799 638.306763,618.654419 
	C628.485779,599.058716 618.825317,579.382141 608.934326,559.822021 
	C597.735291,537.675110 586.351318,515.621643 575.006470,493.548737 
	C574.566956,492.693573 573.605408,492.125092 574.525330,491.010803 
	C575.258179,490.122955 576.147034,489.909058 577.190857,490.091705 
	C587.796875,491.947845 598.073547,494.917023 607.867615,499.417999 
	C617.124756,503.672180 625.454956,509.377197 633.354919,515.782776 
	C635.435059,517.469482 635.929871,520.466858 639.013855,521.831726 
	C638.815613,516.111938 634.845459,512.848083 631.752747,509.435730 
	C625.887756,502.964447 619.477966,496.987000 613.295227,490.803650 
	C608.878845,486.386871 608.964233,485.499146 613.893066,481.610107 
	C620.448425,476.437714 627.023071,471.285919 633.448364,465.955261 
	C635.044617,464.630920 636.960388,463.372131 637.086548,461.060425 
z"/>
<path fill="#FE3232" opacity="1.000000" stroke="none" 
	d="
M772.479492,790.825745 
	C768.991150,790.880432 765.959229,790.926880 762.478638,790.904663 
	C761.198792,788.414062 763.570068,788.090088 764.637451,786.523254 
	C768.719971,783.786621 773.382751,784.765686 777.680908,784.229736 
	C792.608215,782.368286 807.455139,780.071777 822.114014,776.827515 
	C837.516602,773.418823 852.663574,768.914978 866.874695,761.896851 
	C873.890015,758.432312 880.469543,754.065002 886.412415,748.976807 
	C905.333130,732.776917 919.929077,713.187988 931.002380,690.927490 
	C931.221191,690.487671 931.336731,689.996521 931.617859,689.194214 
	C924.648926,689.092346 918.219116,692.961731 910.460022,691.613281 
	C914.434326,686.029785 918.447937,681.125854 921.651001,675.739929 
	C928.608948,664.039978 937.694519,653.495911 941.128418,639.835144 
	C942.609009,633.944702 943.702271,628.025024 943.970032,621.988342 
	C944.872131,601.647278 942.515930,581.664917 937.071350,562.042053 
	C936.732056,560.819092 937.254395,559.458862 937.158813,557.933533 
	C952.206421,581.239136 967.428894,604.380676 970.406799,633.544983 
	C977.580566,623.748718 984.595459,614.169312 991.610413,604.589905 
	C992.073669,604.885376 992.536987,605.180786 993.000305,605.476196 
	C985.299194,648.864624 964.503845,686.431580 939.575562,722.514038 
	C943.628296,723.071167 947.001099,723.488647 950.355591,724.020874 
	C951.545959,724.209717 953.204041,723.207031 953.847107,724.918457 
	C954.518127,726.704651 952.852722,727.534851 951.890015,728.600342 
	C947.222595,733.765808 941.611023,737.831116 936.081177,741.966125 
	C910.042480,761.437256 880.722839,774.293518 849.795532,783.442078 
	C834.945312,787.834839 819.734924,791.478394 803.511047,791.064697 
	C793.015747,790.746582 782.970825,791.301331 772.479492,790.825745 
z"/>
<path fill="#FE3232" opacity="1.000000" stroke="none" 
	d="
M480.400635,791.074951 
	C455.111877,790.536316 431.701080,783.759094 408.713623,774.976257 
	C388.386505,767.209839 369.105286,757.486572 351.235474,745.038269 
	C343.955505,739.966919 336.931000,734.567749 330.718048,728.192871 
	C329.954956,727.409912 328.607544,726.732788 329.282379,725.345581 
	C329.834045,724.211609 331.002258,723.820923 332.261597,724.013367 
	C333.666718,724.228149 334.781647,723.354553 336.039520,723.095337 
	C343.247314,721.610474 343.380920,721.561768 339.187286,715.739014 
	C328.575043,701.004395 319.808838,685.182068 311.572235,669.058838 
	C302.197266,650.707214 296.007080,631.191895 291.136536,611.237000 
	C290.715546,609.512146 291.080750,607.595398 291.080750,604.537842 
	C299.693359,614.156799 305.438110,624.714661 313.390137,634.471252 
	C314.939728,604.585205 331.117981,581.587952 345.074921,557.611023 
	C345.674713,557.832153 346.274536,558.053284 346.874329,558.274475 
	C345.437317,564.806091 343.795380,571.300659 342.603973,577.876831 
	C339.725494,593.764771 338.469574,609.630798 339.644012,625.930481 
	C341.068970,645.707275 351.984100,660.630188 361.872833,676.276489 
	C365.159149,681.476196 369.049713,686.294006 373.045410,691.813232 
	C365.222046,692.661377 358.547272,689.191162 351.063202,688.979431 
	C356.746918,700.559998 363.154938,711.164673 370.650024,721.034363 
	C381.510040,735.335022 393.792084,748.227966 409.243439,757.778381 
	C422.857208,766.192932 437.930542,770.831665 453.200134,774.922607 
	C468.483521,779.017273 484.165070,781.200989 499.734222,783.814392 
	C505.478699,784.778625 511.449005,784.727783 517.625488,785.960632 
	C519.417419,787.168762 520.473267,788.318909 519.273987,790.533203 
	C516.654663,790.902283 514.296692,790.960754 511.499146,791.061646 
	C500.992432,790.893372 490.924622,791.012146 480.400635,791.074951 
z"/>
<path fill="#FE3232" opacity="1.000000" stroke="none" 
	d="
M412.997131,632.922668 
	C413.274292,635.067810 412.246399,637.061523 414.480042,638.765198 
	C424.489258,622.458435 439.158722,612.375488 457.051147,606.752136 
	C457.579651,607.311035 458.108154,607.869995 458.636658,608.428955 
	C455.410400,611.134277 451.970184,613.624329 448.994141,616.581543 
	C434.446594,631.037231 426.546509,648.575256 423.857025,668.920959 
	C421.574341,686.189270 428.858643,698.672729 441.044739,709.645874 
	C458.531158,725.391907 479.696808,734.479065 501.135986,742.809753 
	C520.851501,750.470581 539.051453,759.996643 552.914062,776.431274 
	C560.278870,785.162476 566.909424,794.430115 573.175964,804.405823 
	C570.948486,805.137451 570.075500,803.977539 568.842285,802.623291 
	C559.822876,792.719482 550.074951,783.629028 539.014282,775.971741 
	C525.345520,766.508850 509.695953,762.207703 493.948303,757.962219 
	C469.151306,751.277039 444.110016,745.222961 421.206299,733.022461 
	C408.846863,726.438721 397.363220,718.627197 387.756195,708.288879 
	C386.641876,707.089783 384.951538,705.624756 385.607422,704.296387 
	C386.530701,702.426331 388.514465,703.992798 389.820160,704.474304 
	C391.447144,705.074402 392.885956,705.119385 395.052246,704.528931 
	C386.323669,696.203491 380.588440,686.528381 378.467804,674.941406 
	C377.822174,671.413818 377.456909,667.833374 377.019226,664.270264 
	C376.897461,663.278748 376.921692,662.182861 377.982178,661.647278 
	C379.227264,661.018555 379.733215,662.248718 380.334503,662.876465 
	C383.217163,665.885864 386.019592,668.972107 389.822998,673.081970 
	C391.081940,648.769470 392.879395,626.351868 413.734711,610.573792 
	C414.673309,618.267273 409.952759,625.361206 412.997131,632.922668 
z"/>
<path fill="#FE3232" opacity="1.000000" stroke="none" 
	d="
M715.968079,796.271973 
	C731.007324,771.138245 751.804810,753.596313 779.499268,743.821289 
	C799.642639,736.711426 819.135193,727.682861 836.334595,714.756042 
	C847.868408,706.087219 857.372498,695.462585 859.765869,680.370728 
	C861.000671,672.584839 859.609985,664.831604 857.596985,657.415955 
	C853.018677,640.549561 844.535522,625.769775 831.970703,613.465088 
	C831.375549,612.882263 830.812073,612.263123 830.182983,611.719788 
	C828.702148,610.440613 825.177307,609.697571 826.584167,607.532104 
	C827.829468,605.615112 830.359070,608.311035 832.182861,609.104980 
	C840.566467,612.754639 848.736816,616.732666 855.746155,622.868896 
	C860.968079,627.440308 864.484924,633.279175 868.989502,639.056641 
	C871.040283,633.017944 871.674011,627.241821 870.608765,621.395508 
	C870.344543,619.945374 869.935242,618.508179 870.026001,617.048279 
	C870.148682,615.075623 867.279541,612.539551 869.878052,611.428162 
	C871.647888,610.671204 873.153931,613.716370 874.621277,615.185852 
	C884.182251,624.760986 890.071533,635.994385 891.134094,649.780945 
	C891.671082,656.747498 893.021667,663.672119 893.125000,671.186035 
	C897.512085,669.344849 900.311218,666.611145 902.520142,663.074463 
	C903.063477,662.204651 903.858093,660.826721 905.197083,661.255432 
	C906.695312,661.735168 906.040100,663.288330 905.958740,664.285828 
	C904.849670,677.888428 901.808533,690.752319 891.679749,700.858521 
	C890.685608,701.850464 889.151184,702.562439 889.139648,704.357300 
	C891.126038,706.089661 892.820251,704.107056 894.631409,704.016418 
	C895.631531,703.966431 896.727844,702.661926 897.647522,704.239685 
	C898.369934,705.478943 897.386292,706.047913 896.750244,706.738586 
	C888.671021,715.511902 879.494385,722.910156 869.212952,728.976624 
	C843.191040,744.330322 814.169922,751.325500 785.402771,758.924438 
	C765.107239,764.285522 746.117249,771.756958 730.609314,786.645752 
	C726.695312,790.403503 722.669312,794.111328 718.368958,797.958679 
	C717.079163,798.015930 716.383850,797.545593 715.968079,796.271973 
z"/>
<path fill="#FE3232" opacity="1.000000" stroke="none" 
	d="
M644.773193,660.725464 
	C650.953918,667.119568 653.398621,675.276184 657.595947,682.403076 
	C664.792603,694.622864 671.193909,707.310791 677.941956,719.795227 
	C679.471558,722.625122 679.413757,725.403809 677.943115,728.243958 
	C668.717468,746.060181 660.338989,764.271667 653.060547,782.964539 
	C649.056213,793.248779 645.484192,803.701050 642.916138,814.471375 
	C642.551392,816.001343 642.654419,818.697083 640.692200,818.677490 
	C638.711060,818.657776 639.345520,816.148193 638.931885,814.613708 
	C634.998657,800.023743 630.777832,785.509460 624.841370,771.585693 
	C618.515015,756.747375 612.219421,741.887695 604.868530,727.511597 
	C603.659973,725.148132 603.601929,722.959473 604.930786,720.558289 
	C613.537476,705.005798 622.076172,689.415649 630.612183,673.824158 
	C632.881531,669.679077 635.063599,665.486145 637.585205,661.131287 
	C639.284058,660.719727 640.296631,661.345337 640.396484,662.687195 
	C640.709106,666.888123 642.169006,670.857178 642.116455,675.190002 
	C641.891235,693.773621 641.675781,712.355225 641.000488,731.386597 
	C641.000000,732.988159 641.000000,734.132507 641.000000,735.658813 
	C641.000000,737.530212 641.000000,739.019592 641.000000,740.509033 
	C641.000000,739.240417 641.000000,737.971741 641.000000,736.322998 
	C641.012695,733.201416 640.970703,730.459778 641.069214,727.286560 
	C641.742249,707.950684 642.160278,689.043335 641.968201,670.127197 
	C641.941895,667.539368 639.511841,665.246033 641.222595,662.082886 
	C641.638733,661.484558 641.823425,661.260193 642.360474,660.783813 
	C643.273499,660.343201 643.836548,660.335327 644.773193,660.725464 
z"/>
<path fill="#FE3332" opacity="1.000000" stroke="none" 
	d="
M882.964539,785.735229 
	C882.634460,786.645813 882.113281,787.269287 881.309387,788.015991 
	C880.684082,787.672058 880.426147,787.779114 880.551392,788.324951 
	C880.879883,788.392151 880.792847,788.706604 880.644287,788.774170 
	C878.710144,788.420837 879.552124,789.802551 879.212463,790.797729 
	C865.694519,805.193787 850.008484,816.093018 832.301147,823.812988 
	C818.761780,829.715942 804.807251,834.674683 790.992859,839.936340 
	C779.292542,844.392761 767.708740,849.117981 756.203125,854.631958 
	C756.348572,856.667053 754.487488,856.718994 754.005737,857.920837 
	C746.053955,861.396484 737.648804,863.687927 729.481140,866.687988 
	C713.861389,872.425537 700.035706,881.079163 686.703552,890.770325 
	C677.253784,897.639465 668.897522,905.768921 660.134094,913.427551 
	C657.538513,915.695862 655.302856,918.376038 652.231567,920.485596 
	C658.084900,901.307007 666.208801,883.125427 674.039185,864.442383 
	C674.395874,863.830078 674.472290,863.673584 674.314453,863.600830 
	C674.252380,863.572144 674.114502,863.556519 673.613892,863.432251 
	C669.259277,865.156311 666.810242,868.861511 663.754211,871.837646 
	C661.610840,873.924927 659.135620,875.373047 656.538208,877.482239 
	C659.749512,858.316162 717.916748,817.914307 741.973572,817.998962 
	C737.178162,824.402100 730.620728,828.730957 726.312927,835.101990 
	C722.033447,841.431213 717.428101,847.540222 712.413147,854.514038 
	C721.822083,853.135803 729.804199,849.914795 737.870911,847.017761 
	C755.204773,840.792786 769.222717,829.194519 783.893860,818.635437 
	C795.270935,810.447388 806.774292,802.434570 818.247498,794.380920 
	C818.729370,794.042664 819.475037,794.080017 821.370911,793.661194 
	C814.105164,804.267334 807.429382,814.012268 800.541992,824.029175 
	C800.551697,824.544861 800.658569,824.810181 800.653198,825.097046 
	C800.647644,825.394104 800.618408,825.542664 800.818359,825.311646 
	C828.422485,815.472229 854.647034,803.714783 877.636353,785.031494 
	C879.577576,784.892944 881.446411,782.852295 882.964539,785.735229 
z"/>
<path fill="#FE3332" opacity="1.000000" stroke="none" 
	d="
M527.069946,854.311768 
	C508.655151,846.723999 490.465759,839.362732 472.252380,832.061340 
	C463.213196,828.437561 453.955475,825.431519 445.153442,821.128601 
	C430.861938,814.142212 418.277252,804.968750 407.026703,793.360291 
	C406.898041,792.665039 406.726440,792.411621 406.110291,792.181946 
	C405.304291,791.581360 404.728485,791.114441 404.052673,790.383179 
	C403.185760,787.955261 403.063141,786.201782 406.666321,786.736816 
	C407.103455,786.932922 407.037872,786.955078 407.048645,786.922180 
	C407.384827,787.416504 407.842712,787.758667 408.749664,787.881714 
	C431.484589,805.147705 457.206970,815.955383 484.727203,826.410583 
	C479.107483,818.526978 474.265045,811.694336 469.376434,804.894836 
	C467.373322,802.108826 465.165527,799.463135 463.289917,796.597107 
	C462.843994,795.915710 461.515594,794.666565 462.979156,793.652954 
	C464.165833,792.831055 464.598969,794.264893 465.293518,794.754150 
	C478.887817,804.331604 492.817505,813.478638 505.952301,823.651489 
	C523.854736,837.516846 543.307251,847.927307 565.237488,853.623169 
	C566.485229,853.947266 567.817505,853.946167 570.045349,854.205017 
	C565.966553,847.198486 561.474121,841.399780 557.184753,835.443054 
	C552.800842,829.355164 546.585510,825.013306 541.977417,819.097229 
	C547.000000,817.174866 580.744385,830.590759 590.464172,837.909241 
	C606.063232,849.654602 622.230286,868.134277 626.551392,876.752686 
	C620.361389,872.285522 614.604736,867.274048 608.623413,861.169067 
	C608.849792,867.002197 611.968506,870.741882 613.611389,874.954590 
	C619.163574,889.192017 625.211853,903.236145 631.083923,917.348633 
	C631.431396,918.183838 632.668518,919.075928 631.310181,919.825745 
	C630.168579,920.455811 629.141296,919.675293 628.257996,918.786804 
	C624.176697,914.682068 619.837341,910.851257 615.598206,906.917542 
	C600.132385,892.565613 583.447327,880.011658 564.249695,871.114441 
	C553.482422,866.124207 542.247131,862.271790 530.442993,858.922485 
	C529.855164,856.961365 528.351379,855.903076 527.069946,854.311768 
z"/>
<path fill="#FD3333" opacity="1.000000" stroke="none" 
	d="
M722.341064,397.265564 
	C743.080261,386.865387 763.809143,377.362061 785.208435,369.374268 
	C785.664612,369.203979 786.161438,368.994934 786.626221,369.022766 
	C788.055359,369.108124 789.676147,366.521210 790.835571,369.008636 
	C791.801392,371.080811 789.343140,371.302826 788.362366,372.045197 
	C774.905701,382.230835 761.334473,392.205048 748.707153,403.506531 
	C737.924377,413.157166 728.914062,423.976593 721.394470,436.196533 
	C720.966675,436.891663 720.539917,437.615417 720.285522,438.383118 
	C719.843567,439.716583 719.536743,441.094879 719.065002,442.859528 
	C755.382690,427.516479 792.020752,415.158875 831.886475,415.764526 
	C813.108582,427.491943 792.615051,436.326752 776.210144,451.693756 
	C775.885559,451.313202 775.560974,450.932617 775.236328,450.552063 
	C778.767822,444.872253 782.299316,439.192444 786.194580,432.927551 
	C778.243347,433.402313 771.457031,435.585571 764.705750,437.758911 
	C744.932800,444.124115 727.745056,455.475189 710.244873,466.219269 
	C706.911499,468.265747 703.466797,470.141022 699.994202,471.942566 
	C699.248291,472.329529 698.380737,473.580994 697.413269,472.617950 
	C696.646912,471.855072 697.210815,470.868164 697.527344,469.879730 
	C700.168091,461.633698 704.316711,454.026123 707.514465,446.017883 
	C709.966309,439.877808 712.610352,433.814484 715.687500,426.480957 
	C707.237427,430.094910 700.372498,433.885956 693.578674,437.880066 
	C683.169617,443.999603 673.606812,451.139832 665.384521,460.028442 
	C664.817627,460.641327 664.347229,462.030273 663.156677,461.417877 
	C661.467346,460.548920 662.874573,459.240692 663.237976,458.469330 
	C668.221619,447.890228 675.330811,438.762909 682.650330,429.717896 
	C688.777771,422.145905 696.382996,416.214661 704.169800,409.262421 
	C693.795410,408.195496 684.961304,410.947998 676.751282,415.213440 
	C668.768677,419.360779 662.710388,426.289612 655.944153,432.170166 
	C663.090637,414.686981 675.480042,400.898590 694.874329,397.082581 
	C695.519653,396.955566 696.225159,396.907104 696.864197,397.027069 
	C697.881958,397.218048 699.438965,396.298492 699.780457,397.952484 
	C699.995422,398.993256 698.929199,399.518280 698.027771,400.034271 
	C695.802673,401.307922 693.660217,402.725983 690.640564,404.613556 
	C696.144287,405.236420 700.758545,405.591644 705.196045,406.921906 
	C706.521362,407.319183 707.615112,406.612000 708.804565,405.810364 
	C713.123169,402.899811 717.604004,400.229950 722.341064,397.265564 
z"/>
<path fill="#FE3433" opacity="1.000000" stroke="none" 
	d="
M499.690796,370.367828 
	C517.763977,376.554352 534.793701,384.702850 551.930115,392.569183 
	C558.264526,395.476959 564.613708,398.854675 569.978577,403.219666 
	C574.600769,406.980499 579.189636,406.844391 583.992065,405.754639 
	C586.456787,405.195374 588.893188,405.327576 591.661072,404.759308 
	C590.046875,402.419800 587.614075,401.478149 585.476746,400.235168 
	C584.463196,399.645691 582.982971,399.247925 583.233154,398.005737 
	C583.610168,396.133881 585.477539,396.955505 586.572449,397.062500 
	C594.375122,397.824921 601.338867,400.959076 607.697571,405.348358 
	C614.921997,410.335236 624.507202,423.484100 627.102112,432.140961 
	C616.331360,420.802643 604.341553,411.511383 588.418945,409.092133 
	C585.746643,408.686127 582.959717,409.034851 580.099426,409.509186 
	C583.961914,412.760712 587.382141,416.211090 590.779175,419.555664 
	C600.594482,429.219299 609.722595,439.573120 616.388245,451.810333 
	C617.479553,453.813873 618.933472,455.638184 619.855713,457.707520 
	C620.287048,458.675293 622.005005,459.895172 620.258789,461.145050 
	C618.563232,462.358643 617.998047,460.449097 617.299927,459.702148 
	C609.835144,451.715149 601.275146,445.152466 591.997009,439.406555 
	C584.499084,434.763153 576.676514,430.797577 568.198303,426.639313 
	C569.000000,432.003876 571.601440,436.126770 573.325562,440.480957 
	C577.217163,450.308960 581.731018,459.889435 585.844727,469.632660 
	C586.210999,470.500214 587.789246,471.525909 586.496094,472.643280 
	C585.446655,473.550079 584.383606,472.692169 583.363403,472.083740 
	C573.713562,466.328979 563.931091,460.788452 554.401978,454.841339 
	C538.105652,444.670776 520.741638,437.178528 501.952850,433.093353 
	C500.561646,432.790833 499.047516,433.053589 497.289886,433.053589 
	C499.811646,439.405060 504.693146,444.043335 506.921356,450.301392 
	C502.237244,448.623077 499.254608,444.717651 495.380585,442.078033 
	C482.688110,433.429779 469.197876,426.179230 455.545502,419.208435 
	C454.529358,418.689575 453.412201,418.352539 452.441528,417.766205 
	C451.774902,417.363586 450.972534,416.806458 451.229858,415.813080 
	C451.522888,414.681946 452.552734,415.047058 453.291199,415.028625 
	C459.411896,414.875549 465.566437,415.554169 471.547028,416.285614 
	C482.178619,417.585938 492.812073,419.210419 503.311859,421.782288 
	C515.200867,424.694427 526.657166,428.780701 538.186096,432.696594 
	C545.871826,435.307159 553.364929,438.489105 560.916382,441.485718 
	C561.900635,441.876312 562.875854,442.335693 563.649231,441.537659 
	C564.391541,440.771637 563.409363,440.096893 563.081726,439.394318 
	C556.343811,424.944000 545.741882,413.586548 534.120483,403.013763 
	C522.477051,392.420959 509.652527,383.328796 497.080963,373.422028 
	C496.277832,370.836914 498.347961,371.195618 499.690796,370.367828 
z"/>
<path fill="#FE3332" opacity="1.000000" stroke="none" 
	d="
M955.000305,497.890503 
	C953.718384,508.213196 949.370667,515.763245 939.400879,519.208191 
	C933.663940,521.190491 927.591248,522.002258 921.927795,520.616638 
	C917.973877,519.649292 916.526733,521.491943 915.169861,523.687317 
	C909.420959,532.989136 907.416565,542.907227 911.231628,553.535645 
	C911.557312,554.443054 912.007324,555.417969 911.934937,556.324402 
	C911.864380,557.208008 913.260193,558.182617 912.000000,558.842651 
	C911.028503,559.351562 910.083557,558.734985 909.404724,557.890259 
	C901.391174,547.918884 895.482910,537.316956 900.093445,523.944275 
	C902.210938,517.802551 904.643372,511.764557 907.084290,505.740845 
	C908.707703,501.734375 911.383606,499.118286 916.200867,499.990326 
	C918.550354,500.415649 920.839355,499.775391 922.914001,498.882874 
	C925.019226,497.977234 927.132019,496.549286 926.931763,493.814514 
	C926.757446,491.433929 925.717346,489.395691 923.143799,488.616455 
	C922.523071,488.428467 921.924683,488.160187 921.297791,488.000061 
	C917.424072,487.010437 913.257629,486.986908 911.877502,481.643829 
	C911.248413,479.208282 908.166992,479.787384 905.781128,480.590210 
	C898.253662,483.123016 890.972595,486.485229 882.992065,487.537170 
	C878.955444,488.069275 874.894104,488.876312 870.112122,485.801697 
	C877.981018,483.457275 884.627380,480.456665 890.677917,476.125153 
	C899.495117,469.813110 907.689087,462.782074 915.852173,455.681213 
	C925.259827,447.497772 933.891174,438.522980 942.775574,429.802856 
	C943.677124,428.917938 944.292175,426.760681 946.161194,427.833557 
	C947.740356,428.740051 947.037781,430.596436 946.956909,431.988464 
	C946.338318,442.644379 942.742310,452.337494 937.141724,461.336975 
	C935.421814,464.100616 933.914001,467.088562 931.746399,469.459381 
	C928.621155,472.877625 931.094604,473.208618 933.653442,474.010376 
	C940.769226,476.239960 947.281860,479.438538 951.516113,485.975677 
	C953.771301,489.457428 955.076050,493.252747 955.000305,497.890503 
z"/>
<path fill="#FE3332" opacity="1.000000" stroke="none" 
	d="
M370.968292,529.214905 
	C368.586731,520.942871 362.874664,520.358398 355.733307,520.859802 
	C341.646118,521.848755 330.709778,513.995422 328.555237,500.254333 
	C327.709320,494.859039 330.421997,485.293732 334.691467,482.060852 
	C339.504730,478.416321 344.296722,474.798645 350.512054,473.688660 
	C352.142242,473.397522 353.574432,472.777679 351.792084,470.051910 
	C345.844116,460.955872 339.469208,451.957184 337.440826,440.914215 
	C336.791565,437.379547 336.450867,433.787079 336.011505,430.215790 
	C335.887146,429.205322 335.956207,428.106110 337.016479,427.616943 
	C338.237000,427.053925 338.744415,428.276459 339.383392,428.907257 
	C344.008698,433.473633 348.431519,438.257172 353.214905,442.649139 
	C367.488190,455.754517 381.340179,469.369781 397.994690,479.626404 
	C401.250031,481.631165 404.667938,482.934357 408.243866,483.963837 
	C409.845245,484.424805 411.294312,484.960083 412.723572,486.376038 
	C406.526154,489.369598 400.564941,487.955231 394.743622,486.264954 
	C389.132050,484.635559 383.648285,482.556061 378.138031,480.591125 
	C374.329163,479.232941 371.140839,479.502106 370.129211,484.036072 
	C369.614594,486.342468 368.555481,487.081116 366.411102,487.023376 
	C365.114777,486.988464 363.901001,487.232574 362.589722,487.692688 
	C359.178314,488.889709 355.772339,490.214996 356.139404,494.395111 
	C356.486542,498.348816 360.589996,500.241882 363.357025,499.733276 
	C375.224182,497.551910 376.610352,507.055023 379.801178,514.029968 
	C382.207672,519.290405 383.887909,525.080811 384.741028,530.806641 
	C385.933472,538.810181 382.201721,545.846802 377.970947,552.298340 
	C376.384735,554.717224 374.807678,559.333191 371.831940,558.363892 
	C369.834381,557.713135 372.482422,553.336548 372.966095,550.614380 
	C374.242920,543.428101 374.965790,536.298584 370.968292,529.214905 
z"/>
<path fill="#FD3333" opacity="1.000000" stroke="none" 
	d="
M644.396484,451.248962 
	C642.449585,446.466461 643.720886,441.347961 641.511108,437.064453 
	C640.263184,444.183746 638.992920,451.430817 637.375427,458.881470 
	C636.120239,458.174591 636.654419,457.020325 636.503174,456.064087 
	C636.470703,457.184113 636.561584,458.389160 636.193115,459.854462 
	C634.135315,458.714783 635.012329,456.717468 635.050842,455.043854 
	C635.621826,430.231110 625.983887,409.047638 611.906128,389.419373 
	C610.423828,387.352722 607.147949,385.081696 608.417908,383.008850 
	C609.828003,380.707306 613.269409,382.318542 615.988708,382.816132 
	C621.492004,383.823151 625.641113,387.411713 631.189758,389.930267 
	C629.056213,386.587402 630.924011,383.136719 629.297363,379.816711 
	C631.308044,376.287445 628.761719,372.362854 631.654541,369.125183 
	C637.212830,379.668549 638.933716,391.381378 641.710815,403.845917 
	C643.744324,391.369476 646.648132,379.925507 650.952698,368.879700 
	C651.659180,367.066864 652.421753,365.267761 652.982178,363.409149 
	C653.346497,362.200867 653.823669,360.940033 655.161865,361.283356 
	C656.625000,361.658661 656.157532,363.326202 655.922119,364.252136 
	C654.265259,370.768158 654.950867,377.601746 653.120544,384.096954 
	C652.732727,385.473236 653.064087,387.052216 653.064087,389.119751 
	C658.013794,386.744171 662.270752,383.722656 667.409363,382.874359 
	C668.187622,382.745880 668.934143,382.022919 669.661987,382.071899 
	C671.389465,382.188110 673.700989,381.031158 674.716431,382.783203 
	C675.710388,384.498169 673.971924,386.109100 672.926514,387.550781 
	C662.943726,401.317810 654.048157,415.652588 650.745911,432.662689 
	C649.123108,441.022247 647.791138,449.453674 647.971008,458.036804 
	C648.016541,460.208008 647.889160,460.210663 646.122803,459.394104 
	C645.716553,456.482422 646.891174,453.630798 644.396484,451.248962 
z"/>
<path fill="#FD3433" opacity="1.000000" stroke="none" 
	d="
M514.085449,717.790161 
	C496.418579,713.322754 479.210632,707.639771 463.066071,697.536743 
	C464.010284,701.938171 464.794312,705.593140 465.803162,710.295898 
	C459.818298,706.708435 456.651001,701.948242 454.121796,697.085938 
	C441.813110,673.422729 442.896820,649.901733 455.656036,626.692871 
	C456.274261,625.568237 456.812714,624.535278 458.187164,625.162598 
	C459.640717,625.825989 458.376343,626.750977 458.212891,627.605530 
	C456.549255,636.304565 455.236908,645.066833 455.036285,653.924927 
	C454.619598,672.324768 462.569366,686.192505 477.769684,696.464966 
	C489.355194,704.294617 501.835846,710.159485 514.913696,715.642578 
	C514.486145,716.222595 515.354248,715.984985 514.791016,716.308655 
	C514.138184,716.683899 513.431152,716.405884 512.800781,716.676941 
	C513.530457,716.459167 513.907288,716.878601 514.085449,717.790161 
z"/>
<path fill="#FD3433" opacity="1.000000" stroke="none" 
	d="
M819.075317,705.301331 
	C818.310730,702.617432 820.549072,700.597473 819.548035,697.844849 
	C805.159973,707.394714 789.054138,712.342957 772.447021,717.072266 
	C770.835938,716.888672 769.527222,717.240540 768.142944,716.264038 
	C780.532227,710.118164 793.560181,704.989075 805.020935,696.945862 
	C825.541382,682.544739 830.453003,666.685120 827.257507,642.282959 
	C826.534363,636.760437 824.979248,631.259521 825.077576,624.747742 
	C830.314270,629.796021 832.178101,635.633972 834.133484,641.446655 
	C840.200684,659.482117 838.852539,677.096680 830.881165,694.206665 
	C828.897400,698.464722 826.248962,702.473022 822.431885,705.899902 
	C821.046936,706.833008 820.098389,706.584473 819.075317,705.301331 
z"/>
<path fill="#FD3433" opacity="1.000000" stroke="none" 
	d="
M586.211792,809.252258 
	C579.701599,798.353943 574.545105,787.117920 568.268005,776.457642 
	C561.580872,765.100952 554.635925,753.920715 547.320923,742.973328 
	C545.374817,740.060852 545.601624,739.777161 549.069275,738.776184 
	C563.618530,734.576416 576.515808,727.011780 588.576233,717.954468 
	C590.072205,716.831177 591.737244,715.932983 594.382812,714.261353 
	C592.349854,720.486938 588.602783,724.202271 585.344177,727.961731 
	C579.514038,734.687805 572.936768,740.777344 565.680481,745.986450 
	C563.040405,747.881653 564.600647,749.390625 565.485962,750.902283 
	C570.351013,759.209229 574.558289,767.824951 578.334229,776.679688 
	C582.030029,785.346191 585.544128,794.062195 588.065430,803.560791 
	C586.877319,805.584412 590.936279,808.730225 586.211792,809.252258 
z"/>
<path fill="#FD3433" opacity="1.000000" stroke="none" 
	d="
M697.908447,796.334106 
	C701.906067,781.080688 708.540833,767.283081 715.869629,753.852234 
	C718.153076,749.667480 719.660522,747.497498 714.656311,743.793396 
	C705.408997,736.948486 697.261597,728.692139 691.047974,718.828247 
	C690.526672,718.000732 688.168762,717.198608 689.952942,715.770813 
	C691.000916,714.932129 692.325073,716.004944 693.286255,716.806458 
	C701.359253,723.538757 710.364197,728.805664 719.811401,733.284607 
	C724.493408,735.504395 729.342590,737.703796 734.359131,738.780396 
	C738.348572,739.636597 737.023560,741.291931 735.936035,743.060730 
	C733.717163,746.669861 731.198364,750.093018 728.877502,753.641418 
	C718.540161,769.446533 709.419373,785.951355 700.427490,802.876953 
	C699.109741,803.819824 697.982788,804.002625 696.228577,803.452515 
	C695.694885,803.193237 695.249146,803.263977 695.204407,803.042847 
	C696.357605,800.909424 697.972229,799.186584 697.908447,796.334106 
z"/>
<path fill="#FD3433" opacity="1.000000" stroke="none" 
	d="
M854.387085,524.598022 
	C845.292480,527.332214 836.549194,529.746460 828.481567,534.107239 
	C826.159302,535.362488 824.329346,537.742859 819.723877,537.833557 
	C824.259460,533.276245 827.734375,529.402771 831.602295,525.972412 
	C841.673035,517.041077 852.547058,509.363007 865.432190,504.854065 
	C874.724182,501.602478 884.261414,499.720886 894.046753,499.070465 
	C895.276489,498.988739 897.459229,497.981415 897.754700,500.131866 
	C897.951111,501.560944 896.063416,501.630829 894.836853,502.147522 
	C888.870483,504.660889 883.016418,507.440643 876.416870,510.447662 
	C881.494385,513.247864 885.396240,516.473572 888.786926,520.291870 
	C889.549316,521.150391 890.538147,521.951660 890.923279,522.968445 
	C891.524719,524.555908 893.698853,525.947998 892.524475,527.743530 
	C891.285339,529.638123 888.968323,528.206848 887.606140,527.828979 
	C882.398315,526.384277 876.950134,526.699097 871.507080,525.037292 
	C871.172668,524.088318 870.759705,523.441284 870.047852,523.581543 
	C864.984802,524.579590 859.816101,523.394531 854.387085,524.598022 
z"/>
<path fill="#FD3433" opacity="1.000000" stroke="none" 
	d="
M385.411652,500.192932 
	C390.072205,497.152527 395.153992,499.601440 399.820465,500.280792 
	C424.861389,503.926025 444.537628,517.358276 461.197754,535.763000 
	C461.588379,536.194458 461.758789,536.825256 462.679626,538.638367 
	C451.536987,533.019104 442.025665,526.554504 430.172729,525.445251 
	C427.326233,523.043762 424.265930,524.200623 421.409912,524.052917 
	C418.319122,523.892944 415.210480,523.930847 411.861908,524.197021 
	C409.844543,527.351074 407.033020,525.505554 404.755768,526.059387 
	C401.604767,526.825806 398.416321,527.506409 395.204895,527.922729 
	C393.893341,528.092773 392.004486,528.777161 391.193176,527.140991 
	C390.505310,525.753662 391.344238,524.444946 392.255585,523.096558 
	C395.352600,518.514038 399.298706,514.920471 403.944214,512.013489 
	C404.617615,511.592133 405.224762,511.064911 406.361389,510.212677 
	C399.897614,507.350006 393.849945,504.671631 387.439392,501.916321 
	C386.703888,501.267578 386.230316,500.795868 385.411652,500.192932 
z"/>
<path fill="#FD3736" opacity="1.000000" stroke="none" 
	d="
M856.345276,536.719971 
	C853.730164,535.663635 851.469116,534.754517 849.161560,533.985291 
	C848.126099,533.640198 847.173584,533.110352 847.208618,532.065430 
	C847.258423,530.583984 848.658752,530.962769 849.508972,531.040955 
	C867.660278,532.710083 883.558411,538.544128 893.619141,555.080933 
	C894.099304,555.870117 895.505615,556.530579 894.681641,557.503296 
	C893.822693,558.517334 892.608948,558.052063 891.638306,557.138306 
	C890.690796,556.246277 889.927307,555.119324 888.503540,554.800171 
	C887.447510,554.563354 887.174500,552.798462 885.598145,553.267517 
	C886.285889,557.863159 889.732056,561.569519 890.170227,567.394226 
	C885.371155,563.222534 883.528931,558.052612 880.133240,554.075317 
	C873.613098,546.438293 866.391296,540.059753 856.345276,536.719971 
z"/>
<path fill="#FC3635" opacity="1.000000" stroke="none" 
	d="
M424.479279,532.238342 
	C428.071503,532.063660 431.263733,532.063660 434.455933,532.063660 
	C434.749664,532.430115 435.043396,532.796570 435.337128,533.163025 
	C416.657196,538.706848 402.933594,550.151062 393.539032,566.948242 
	C393.854919,561.865051 396.426636,557.795288 398.603973,552.085815 
	C395.503296,554.187073 393.677399,555.417603 391.859406,556.659729 
	C391.107300,557.173584 390.497101,558.514282 389.440460,557.622925 
	C388.612335,556.924316 388.965515,555.840515 389.580017,554.927734 
	C395.353668,546.351746 402.292053,539.261841 412.423706,535.798157 
	C416.271332,534.482849 420.087646,533.179443 424.479279,532.238342 
z"/>
<path fill="#E43131" opacity="1.000000" stroke="none" 
	d="
M645.091980,660.558228 
	C644.652893,660.937866 644.161560,660.934143 643.298828,660.927002 
	C641.875793,663.168518 640.552734,665.343750 643.080811,667.612305 
	C643.696960,668.165100 643.881531,669.429260 643.906921,670.375916 
	C644.407471,689.049927 643.277710,707.684875 642.327759,726.708130 
	C640.716431,720.664490 641.870361,714.212708 641.578979,709.531677 
	C640.905090,716.101990 642.200439,724.511230 640.644653,732.995300 
	C640.124329,711.437622 640.058350,689.722473 639.949280,668.007629 
	C639.937866,665.740723 640.449280,663.301514 638.192078,661.192627 
	C638.959106,658.929932 639.033508,655.807007 642.356262,656.101013 
	C644.594971,656.299133 644.719421,658.425537 645.091980,660.558228 
z"/>
<path fill="#F93938" opacity="1.000000" stroke="none" 
	d="
M695.704407,803.246399 
	C696.802917,803.137817 697.910889,803.082397 699.569702,803.037781 
	C698.320496,810.022339 694.508972,816.171265 691.991089,822.857910 
	C689.848572,828.547791 687.337646,834.098938 684.323486,839.480713 
	C686.480591,827.910706 690.215637,816.828857 694.081238,805.381165 
	C694.567810,804.474731 695.356750,804.534180 695.827637,803.659424 
	C695.915222,803.347534 695.713928,803.299561 695.704407,803.246399 
z"/>
<path fill="#F93938" opacity="1.000000" stroke="none" 
	d="
M365.028961,383.523193 
	C363.549927,385.946686 365.191101,388.381134 364.064758,390.777466 
	C359.746918,382.254883 355.076172,373.684967 352.515289,364.132721 
	C356.877014,370.390686 361.970093,376.091187 365.028961,383.523193 
z"/>
<path fill="#F93938" opacity="1.000000" stroke="none" 
	d="
M585.930542,809.428345 
	C588.395935,808.287598 586.697327,805.810791 587.934692,804.205811 
	C591.891907,811.307434 593.454407,819.414490 596.067017,827.576416 
	C595.682800,828.351929 595.173401,828.514709 594.228271,828.259521 
	C590.374634,822.348816 588.393005,815.985535 585.930542,809.428345 
z"/>
<path fill="#F93938" opacity="1.000000" stroke="none" 
	d="
M406.962952,786.624084 
	C405.570801,787.121277 404.370972,787.716125 404.013397,789.766174 
	C397.623810,784.722717 392.927307,778.083191 389.065430,770.732727 
	C395.326233,775.617676 400.616821,781.484253 406.962952,786.624084 
z"/>
<path fill="#F13A39" opacity="1.000000" stroke="none" 
	d="
M770.639648,559.981812 
	C772.218384,560.694031 772.167603,561.694519 770.715454,561.775208 
	C756.305603,562.575562 741.880127,564.317932 727.494751,561.522034 
	C727.083191,561.442017 726.764832,560.882568 726.227478,560.211975 
	C726.799500,559.920471 727.546997,559.963623 728.662476,560.078003 
	C730.460754,560.835449 732.004517,560.312500 733.802856,560.751343 
	C743.143555,560.602539 752.215637,561.986084 761.598999,560.078979 
	C764.426208,560.880615 766.879517,560.360474 769.641479,560.304810 
	C769.976135,560.152893 770.411316,560.006348 770.639648,559.981812 
z"/>
<path fill="#F13A39" opacity="1.000000" stroke="none" 
	d="
M555.553223,560.093994 
	C554.232117,562.716431 551.409485,562.164185 549.116699,562.382568 
	C537.809631,563.459839 526.498291,563.730164 514.976990,560.722290 
	C514.809631,560.382874 514.995728,560.324341 515.296509,560.535095 
	C517.665894,560.287170 519.949036,560.538635 522.674194,560.739868 
	C531.818970,560.647095 540.546631,561.847290 549.626648,560.247009 
	C551.238647,560.795227 552.600403,560.268372 554.210205,560.744507 
	C554.811157,560.539062 555.028320,560.288208 555.553223,560.093994 
z"/>
<path fill="#F93938" opacity="1.000000" stroke="none" 
	d="
M883.460938,785.882568 
	C881.583679,785.747803 880.011780,785.473328 878.194031,785.041504 
	C883.025574,780.210327 888.102905,775.536377 893.180237,770.862488 
	C891.564270,776.924866 887.145813,780.988281 883.460938,785.882568 
z"/>
<path fill="#FE3D3D" opacity="1.000000" stroke="none" 
	d="
M480.195862,791.462524 
	C483.507385,789.111084 487.397949,790.017517 491.119232,790.068481 
	C497.524780,790.156372 503.976288,789.234680 510.699524,790.890747 
	C508.746307,792.945312 506.052795,791.903137 503.565308,791.938293 
	C495.861481,792.046997 488.153748,791.877625 480.195862,791.462524 
z"/>
<path fill="#FE3D3D" opacity="1.000000" stroke="none" 
	d="
M772.398071,791.040466 
	C782.119507,789.381775 792.224548,789.637451 802.692627,790.895508 
	C800.184814,793.065979 796.962463,791.960632 793.965027,791.903564 
	C786.902405,791.769287 779.786987,792.892944 772.398071,791.040466 
z"/>
<path fill="#E43131" opacity="1.000000" stroke="none" 
	d="
M526.709167,854.410522 
	C527.845093,854.060181 528.838989,854.008484 529.825684,854.071045 
	C531.480286,854.175903 533.543579,854.191589 533.818176,856.188477 
	C534.104187,858.268311 531.651611,857.675659 530.319702,858.691406 
	C526.237610,857.471069 521.891418,857.804565 518.191772,855.526001 
	C520.935486,851.869568 523.935486,856.250671 526.709167,854.410522 
z"/>
<path fill="#F93938" opacity="1.000000" stroke="none" 
	d="
M631.874390,368.554993 
	C631.646057,372.234833 631.426147,375.612823 629.722534,379.075714 
	C629.379700,379.223816 629.314514,379.037842 629.516479,378.725342 
	C629.674316,377.627808 629.432861,376.671631 629.307007,375.350128 
	C628.472656,371.419708 627.733704,367.833893 627.141174,364.224060 
	C626.976013,363.218140 626.388062,361.698639 627.811829,361.282562 
	C629.127197,360.898224 629.401489,362.429535 630.116516,363.248962 
	C631.431580,364.755890 630.334412,366.861206 631.874390,368.554993 
z"/>
<path fill="#E43131" opacity="1.000000" stroke="none" 
	d="
M924.438232,379.896271 
	C923.765076,379.235779 923.402954,378.400360 922.991577,377.222260 
	C923.865356,371.775879 927.627441,368.314270 930.432007,364.219055 
	C929.692871,369.827209 926.977722,374.687653 924.438232,379.896271 
z"/>
<path fill="#E43131" opacity="1.000000" stroke="none" 
	d="
M767.529785,715.990601 
	C769.089722,716.217163 770.270996,716.464966 771.753296,716.918457 
	C766.922974,719.866943 761.163025,720.395264 755.664062,721.958374 
	C758.650330,718.201172 763.212769,717.728699 767.529785,715.990601 
z"/>
<path fill="#E43131" opacity="1.000000" stroke="none" 
	d="
M514.169739,718.452698 
	C513.218384,717.122681 512.692200,716.184753 514.859070,715.974792 
	C520.117432,716.281921 524.016296,719.414856 528.437866,721.406982 
	C523.412659,722.290771 519.078064,719.469849 514.169739,718.452698 
z"/>
<path fill="#F13A39" opacity="1.000000" stroke="none" 
	d="
M764.302429,786.081055 
	C765.010864,788.066040 764.383179,789.515503 762.327393,790.630859 
	C760.695496,791.458374 759.881226,790.020203 758.357544,789.926758 
	C757.078979,788.817444 755.113831,789.287354 754.804077,787.230286 
	C757.778015,784.950012 760.958679,786.474976 764.302429,786.081055 
z"/>
<path fill="#F13A39" opacity="1.000000" stroke="none" 
	d="
M519.397583,790.914917 
	C518.725952,789.503906 518.439270,788.164062 518.075439,786.489990 
	C521.205444,786.189087 524.412598,786.222290 527.856201,786.611633 
	C528.148865,788.750732 526.571350,788.842285 525.249207,789.664734 
	C523.219421,790.072632 521.707275,791.487183 519.397583,790.914917 
z"/>
<path fill="#F13A39" opacity="1.000000" stroke="none" 
	d="
M411.889679,524.639282 
	C417.589844,522.216553 423.580750,522.001587 429.771088,524.769043 
	C425.595032,525.067932 421.237701,525.026123 416.418091,524.912231 
	C415.079559,524.310059 414.028168,524.646606 412.757385,524.230713 
	C412.317505,524.371704 412.241669,524.549377 411.889679,524.639282 
z"/>
<path fill="#FE3D3D" opacity="1.000000" stroke="none" 
	d="
M517.567444,462.121338 
	C515.800476,470.946808 517.817505,479.944672 515.956665,488.802094 
	C515.956665,484.814026 515.956665,480.825928 515.944946,476.368347 
	C516.666748,471.320679 514.636047,466.501587 517.567444,462.121338 
z"/>
<path fill="#F13A39" opacity="1.000000" stroke="none" 
	d="
M462.716125,593.772217 
	C462.475922,600.670654 461.620453,607.339539 462.000702,614.536682 
	C461.641785,615.351868 461.210541,615.488037 460.434509,615.220215 
	C460.105988,614.549988 460.059631,614.099548 460.082947,613.314941 
	C460.885345,610.244080 460.356995,607.460999 460.306335,604.352966 
	C460.108093,603.554932 460.060547,603.105042 460.082397,602.321045 
	C460.286194,601.802307 460.420593,601.617615 460.754883,601.154663 
	C460.974335,598.865295 460.993866,596.854248 461.083496,594.416992 
	C461.511749,593.647095 461.937469,593.503235 462.716125,593.772217 
z"/>
<path fill="#FE3D3D" opacity="1.000000" stroke="none" 
	d="
M854.472961,524.884216 
	C859.423401,521.555725 864.999817,522.670532 870.910156,524.509094 
	C870.756958,524.821716 870.285217,524.813416 869.725830,524.457520 
	C869.222595,524.107788 868.849609,524.232849 868.268799,524.657349 
	C863.656433,524.869812 859.294495,524.909912 854.472961,524.884216 
z"/>
<path fill="#F13A39" opacity="1.000000" stroke="none" 
	d="
M754.510559,858.045654 
	C752.656128,857.903015 751.114685,858.268127 749.641113,856.689453 
	C751.949219,857.247925 753.847778,856.621338 755.806519,855.143616 
	C758.557007,854.971069 761.015991,854.971069 763.475037,854.971069 
	C760.985535,857.288452 758.090820,858.073914 754.510559,858.045654 
z"/>
<path fill="#F13A39" opacity="1.000000" stroke="none" 
	d="
M715.591797,796.107422 
	C716.503296,796.490723 717.109680,797.038208 717.889343,797.841064 
	C715.408630,800.127319 715.034790,804.684082 710.342468,805.072449 
	C711.227478,801.426331 714.113342,799.315369 715.591797,796.107422 
z"/>
<path fill="#E43131" opacity="1.000000" stroke="none" 
	d="
M593.904663,828.448181 
	C594.364868,828.039856 594.866882,828.018433 595.745483,827.983276 
	C597.623596,831.321716 599.695984,834.543701 598.660217,839.097900 
	C595.838257,835.831299 594.759216,832.396240 593.904663,828.448181 
z"/>
<path fill="#FE3D3D" opacity="1.000000" stroke="none" 
	d="
M471.190521,665.183105 
	C470.980011,657.694702 470.980011,650.433594 470.980011,643.172424 
	C472.648834,648.799316 471.288177,654.580566 472.654999,660.571899 
	C472.855103,661.408203 472.892181,661.873535 472.859467,662.682861 
	C472.484436,663.588806 472.516876,664.224304 472.204926,665.069641 
	C471.808868,665.345215 471.604950,665.377808 471.190521,665.183105 
z"/>
<path fill="#E43131" opacity="1.000000" stroke="none" 
	d="
M754.511658,786.948608 
	C755.873901,787.705139 756.804504,788.505188 757.870361,789.580505 
	C757.551514,789.898987 757.097473,789.942200 756.307129,789.914307 
	C755.813416,789.758240 755.655945,789.673279 755.259460,789.710449 
	C751.888794,790.377319 749.228149,789.159912 746.625549,786.992126 
	C749.110413,786.992126 751.595215,786.992126 754.511658,786.948608 
z"/>
<path fill="#E43131" opacity="1.000000" stroke="none" 
	d="
M525.328613,789.928284 
	C525.422913,788.591431 526.371155,787.820496 527.810669,787.110352 
	C530.652161,786.967773 533.211548,786.967773 535.770996,786.967773 
	C533.597351,789.038818 531.382324,790.092590 528.378540,789.902588 
	C527.809937,789.751099 527.651245,789.669800 527.258118,789.717407 
	C526.571045,789.894897 526.118469,789.943542 525.328613,789.928284 
z"/>
<path fill="#F13A39" opacity="1.000000" stroke="none" 
	d="
M499.610962,370.088318 
	C499.558411,371.453033 498.389008,371.985474 497.172852,372.912781 
	C494.459717,372.637665 491.660950,369.967407 492.455566,368.976837 
	C494.341766,366.625397 496.854950,369.776764 499.610962,370.088318 
z"/>
<path fill="#F13A39" opacity="1.000000" stroke="none" 
	d="
M461.711426,616.814392 
	C463.630157,620.689575 463.181671,624.476624 462.315521,628.639648 
	C460.726868,625.421143 461.033844,621.655701 460.927490,617.485413 
	C461.059631,616.906982 461.241028,616.771729 461.711426,616.814392 
z"/>
<path fill="#F13A39" opacity="1.000000" stroke="none" 
	d="
M644.117188,451.389771 
	C645.301819,450.748505 646.847778,449.463684 646.965820,451.948669 
	C647.066711,454.071655 647.296448,456.227631 646.346252,458.646393 
	C644.182922,456.966095 645.697998,453.909302 644.117188,451.389771 
z"/>
<path fill="#FE3D3D" opacity="1.000000" stroke="none" 
	d="
M818.599243,705.105713 
	C819.766663,705.243164 820.612488,705.565125 821.790771,705.960693 
	C822.058594,708.537476 820.122498,709.001709 817.966797,709.682678 
	C818.076843,708.127075 818.177185,706.708618 818.599243,705.105713 
z"/>
<path fill="#E43131" opacity="1.000000" stroke="none" 
	d="
M811.102661,668.379761 
	C811.837952,667.979065 812.508484,667.981262 813.514160,667.979858 
	C814.328491,670.069153 813.519836,671.615356 811.925781,673.026733 
	C810.462341,671.657959 811.255920,670.122437 811.102661,668.379761 
z"/>
<path fill="#FD3333" opacity="1.000000" stroke="none" 
	d="
M471.770233,665.246826 
	C472.165588,664.453003 472.334747,663.959656 472.646790,663.246643 
	C472.852478,665.742554 472.913269,668.458252 472.979065,671.173828 
	C473.005524,672.263733 472.783997,673.093201 471.181030,672.417969 
	C470.834045,671.872314 470.698364,671.661377 470.642029,671.082642 
	C471.226196,669.029053 470.734100,667.184570 471.770233,665.246826 
z"/>
<path fill="#FE3D3D" opacity="1.000000" stroke="none" 
	d="
M463.003418,593.583984 
	C462.590851,593.987854 462.180176,593.990295 461.461548,593.991821 
	C461.182953,592.103027 461.212280,590.215088 461.583923,588.104004 
	C463.125061,589.477295 463.001495,591.342957 463.003418,593.583984 
z"/>
<path fill="#F93938" opacity="1.000000" stroke="none" 
	d="
M697.575256,796.124573 
	C699.520325,798.769348 697.770142,800.560181 695.557190,802.576538 
	C695.159668,802.821655 695.062073,802.616333 695.153809,802.549194 
	C695.351746,802.209778 695.457947,801.937561 695.757629,801.271973 
	C696.390625,799.350525 696.830261,797.822510 697.575256,796.124573 
z"/>
<path fill="#E43131" opacity="1.000000" stroke="none" 
	d="
M636.016296,460.324097 
	C635.965027,457.784424 635.965027,455.448853 635.965027,453.113251 
	C636.322205,453.114166 636.679443,453.115082 637.036621,453.115997 
	C637.036621,454.835968 637.036621,456.555939 637.032410,458.680481 
	C636.998962,459.530426 636.969727,459.975830 636.770020,460.711792 
	C636.599487,461.002350 636.664124,460.922882 636.703430,460.904083 
	C636.431580,460.930054 636.206543,460.811035 636.016296,460.324097 
z"/>
<path fill="#FE3332" opacity="1.000000" stroke="none" 
	d="
M460.092529,604.450684 
	C461.356903,606.723206 461.220825,609.494873 460.319519,612.635620 
	C460.111542,610.286011 460.070465,607.591187 460.092529,604.450684 
z"/>
<path fill="#FE3433" opacity="1.000000" stroke="none" 
	d="
M769.538757,560.087708 
	C767.595825,561.296631 765.160950,561.230713 762.360413,560.315674 
	C764.384155,560.107483 766.742798,560.065002 769.538757,560.087708 
z"/>
<path fill="#FE3232" opacity="1.000000" stroke="none" 
	d="
M522.890320,560.587646 
	C520.877197,560.908691 518.629272,560.889648 515.896301,560.837402 
	C517.725342,559.309143 520.214233,560.087708 522.890320,560.587646 
z"/>
<path fill="#F13A39" opacity="1.000000" stroke="none" 
	d="
M385.156433,500.276978 
	C386.231720,500.193726 387.484436,499.468536 388.349518,500.571014 
	C388.395447,500.629578 387.762756,501.220612 387.261230,501.701599 
	C386.062317,501.992340 385.742584,501.082397 385.156433,500.276978 
z"/>
<path fill="#F93938" opacity="1.000000" stroke="none" 
	d="
M879.319092,791.001831 
	C878.843262,790.120056 878.001526,788.886658 880.230408,788.781372 
	C880.191772,789.524597 879.887756,790.207397 879.319092,791.001831 
z"/>
<path fill="#FE3232" opacity="1.000000" stroke="none" 
	d="
M733.916992,560.608032 
	C732.651123,560.784546 731.171875,560.632874 729.361511,560.315308 
	C730.588196,560.192871 732.145874,560.236328 733.916992,560.608032 
z"/>
<path fill="#FE3332" opacity="1.000000" stroke="none" 
	d="
M462.000427,616.660889 
	C461.813324,616.998718 461.626251,617.005066 461.158691,617.026855 
	C460.175842,616.812195 460.019012,616.260315 460.092346,615.304260 
	C460.563110,615.001099 460.973877,615.001831 461.692749,615.002991 
	C462.000702,615.445435 462.000549,615.887451 462.000427,616.660889 
z"/>
<path fill="#FE3232" opacity="1.000000" stroke="none" 
	d="
M554.345764,560.464844 
	C553.310303,560.689697 552.026672,560.589478 550.392090,560.326050 
	C551.393250,560.155090 552.745422,560.147522 554.345764,560.464844 
z"/>
<path fill="#F93938" opacity="1.000000" stroke="none" 
	d="
M408.919312,787.601929 
	C408.224609,788.434570 407.583344,788.347534 407.126404,787.124390 
	C407.637207,787.035461 408.214966,787.181580 408.919312,787.601929 
z"/>
<path fill="#FE3232" opacity="1.000000" stroke="none" 
	d="
M471.224579,670.735596 
	C470.999573,671.247742 470.994019,671.414856 470.979095,671.832642 
	C469.785309,671.658875 470.081970,670.627747 469.979492,669.398804 
	C469.946411,669.050964 469.996490,669.016418 470.022522,669.000732 
	C471.193878,668.778259 471.397339,669.506592 471.224579,670.735596 
z"/>
<path fill="#FD3433" opacity="1.000000" stroke="none" 
	d="
M412.613892,524.520630 
	C413.358673,524.308167 414.323975,524.422363 415.622559,524.688354 
	C414.915375,524.842529 413.874908,524.844971 412.613892,524.520630 
z"/>
<path fill="#FD3333" opacity="1.000000" stroke="none" 
	d="
M629.089783,375.401794 
	C629.374207,375.962250 629.592102,376.909882 629.796753,378.228149 
	C628.553772,377.926361 629.158508,376.757538 629.089783,375.401794 
z"/>
<path fill="#F93938" opacity="1.000000" stroke="none" 
	d="
M405.967407,792.286133 
	C406.228088,792.274414 406.576050,792.500610 406.903839,792.890869 
	C406.607330,792.877991 406.331024,792.700989 405.967407,792.286133 
z"/>
<path fill="#FD3433" opacity="1.000000" stroke="none" 
	d="
M695.551331,803.364746 
	C695.497070,803.790527 695.078979,804.233521 694.410767,804.838684 
	C694.502869,804.461243 694.845154,803.921570 695.551331,803.364746 
z"/>
<path fill="#FE3332" opacity="1.000000" stroke="none" 
	d="
M460.711426,600.974365 
	C460.794708,601.136047 460.624969,601.389160 460.298706,601.811401 
	C460.257263,601.682129 460.362671,601.377197 460.711426,600.974365 
z"/>
<path fill="#FD3433" opacity="1.000000" stroke="none" 
	d="
M695.706177,800.975342 
	C695.845642,801.150085 695.740295,801.421692 695.440186,802.087646 
	C695.317444,802.012085 695.389343,801.542175 695.706177,800.975342 
z"/>
<path fill="#F13A39" opacity="1.000000" stroke="none" 
	d="
M755.257446,789.885864 
	C755.253296,789.710449 755.492859,789.682739 755.855042,789.796387 
	C755.970886,789.843201 755.494507,789.939148 755.257446,789.885864 
z"/>
<path fill="#F13A39" opacity="1.000000" stroke="none" 
	d="
M527.260681,789.893311 
	C527.251892,789.718994 527.489319,789.685303 527.852295,789.788696 
	C527.968689,789.832336 527.497681,789.940369 527.260681,789.893311 
z"/>
<path fill="#F93938" opacity="1.000000" stroke="none" 
	d="
M880.965210,788.357178 
	C880.879883,788.392151 880.900269,788.091064 880.963501,788.115112 
	C881.026672,788.139221 881.050598,788.322144 880.965210,788.357178 
z"/>
<path fill="#FD3433" opacity="1.000000" stroke="none" 
	d="
M868.370483,524.884033 
	C868.381165,524.677917 868.743896,524.526245 869.372437,524.242188 
	C869.333008,524.386047 869.027710,524.662231 868.370483,524.884033 
z"/>
<path fill="#000000" opacity="1.000000" stroke="none" 
	d="
M780.968994,622.421997 
	C781.855469,636.547729 779.205566,649.220703 771.006104,660.547607 
	C762.314209,672.554810 750.574707,679.963501 736.320068,682.863708 
	C717.986511,686.593689 701.405334,682.471497 686.722900,670.374207 
	C676.778442,662.180603 671.403259,651.619873 668.234741,639.549011 
	C667.586121,637.078125 667.801880,635.052368 670.610840,634.056641 
	C671.359131,633.791443 672.028076,633.267395 672.690796,632.801575 
	C678.605042,628.645447 683.360229,625.496460 691.222900,631.626831 
	C701.410278,639.569702 717.170959,635.541504 724.409729,624.934265 
	C729.274902,617.804993 727.367493,610.162842 724.355225,602.840088 
	C721.382385,595.613159 721.287659,595.653381 728.012329,590.999207 
	C731.806702,588.373108 734.678284,583.997498 740.317261,584.976746 
	C746.623108,586.071899 752.961670,586.800781 759.382202,587.147156 
	C763.837036,587.387390 766.257263,591.506836 768.826477,594.634338 
	C775.360779,602.588257 779.353088,611.766846 780.968994,622.421997 
z"/>
<path fill="#000000" opacity="1.000000" stroke="none" 
	d="
M556.932983,617.726013 
	C557.962402,628.580078 568.342102,634.416626 576.813232,635.014954 
	C585.061768,635.597473 592.585083,634.279907 598.146973,627.374146 
	C599.010498,626.302002 599.791077,625.646423 601.421570,626.799255 
	C604.467163,628.952576 607.654480,631.073059 611.081421,632.480042 
	C616.243652,634.599487 616.124390,638.018921 614.838013,642.483093 
	C607.723206,667.175476 585.140076,684.162415 559.401855,684.119263 
	C543.035889,684.091797 529.097778,678.284058 517.983459,667.059692 
	C509.087463,658.075562 503.757355,646.887817 502.786011,633.510803 
	C501.519257,616.064636 507.458557,602.055786 519.467529,590.011230 
	C521.586548,587.885925 523.900208,586.809021 526.935120,586.966675 
	C531.884644,587.223633 536.689819,586.070374 541.542297,585.285950 
	C544.890869,584.744568 548.230225,584.249695 551.128479,587.405396 
	C553.520630,590.010071 556.773560,591.808228 559.544250,594.086365 
	C561.561890,595.745422 562.999817,597.221130 560.573608,600.197937 
	C558.370300,602.901245 557.787292,606.702209 557.091187,610.590088 
	C557.167542,613.112488 556.905518,615.236328 556.932983,617.726013 
z"/>
<path fill="#FE3D3D" opacity="1.000000" stroke="none" 
	d="
M557.109741,617.767822 
	C555.428406,615.970764 555.652039,613.834167 556.984436,611.332031 
	C558.230347,613.113403 558.313354,615.270386 557.109741,617.767822 
z"/>
<path fill="#F13A39" opacity="1.000000" stroke="none" 
	d="
M471.209595,670.748474 
	C470.796600,670.540283 470.588074,670.000000 470.214050,669.222412 
	C470.271973,667.857239 470.495361,666.729370 470.849365,665.278687 
	C471.149414,664.956543 471.318848,664.957275 471.742340,664.952148 
	C471.971069,666.787598 472.265320,668.662964 471.209595,670.748474 
z"/>
<path fill="#F13A39" opacity="1.000000" stroke="none" 
	d="
M775.492554,560.494629 
	C775.512634,560.487549 775.472412,560.501709 775.492554,560.494629 
z"/>
<path fill="#000000" opacity="1.000000" stroke="none" 
	d="
M641.985596,568.967773 
	C641.387390,569.770447 640.727966,570.341125 640.308228,569.457397 
	C638.140076,564.893127 636.190918,560.219849 633.881958,555.730347 
	C633.003357,554.021851 633.071106,552.838135 633.912415,551.191711 
	C636.134705,546.842651 638.073853,542.346802 641.295715,538.175720 
	C642.930847,540.885864 644.441345,543.425354 645.986755,545.943420 
	C648.903625,550.695984 650.279602,555.239258 646.075928,560.261719 
	C644.159790,562.551086 643.375061,565.787354 641.985596,568.967773 
z"/>
<path fill="#E43131" opacity="1.000000" stroke="none" 
	d="
M640.980347,590.585083 
	C639.121216,586.911011 640.807495,583.814453 642.398682,580.690430 
	C642.478882,584.051086 642.405701,587.381592 640.980347,590.585083 
z"/>
<path fill="#C51717" opacity="1.000000" stroke="none" 
	d="
M640.207642,733.506226 
	C641.897278,727.257446 640.567078,721.238281 640.920593,715.286865 
	C641.037659,713.315125 640.939026,711.330566 642.071411,709.330811 
	C642.071411,714.932556 642.071411,720.534241 642.113647,726.611938 
	C642.082581,730.067261 642.009338,733.046631 641.935791,736.473999 
	C641.580811,737.320007 641.138977,737.449280 640.429565,737.027954 
	C640.228638,735.758728 640.220581,734.809265 640.207642,733.506226 
z"/>
<path fill="#E43131" opacity="1.000000" stroke="none" 
	d="
M640.179810,737.190247 
	C640.612854,736.767639 640.989014,736.827026 641.650330,736.904175 
	C641.935547,740.463074 641.935547,744.004150 641.935547,747.545166 
	C641.489624,747.548523 641.043762,747.551941 640.597839,747.555298 
	C639.432129,744.363770 640.199280,740.974976 640.179810,737.190247 
z"/>
<path fill="#000000" opacity="1.000000" stroke="none" 
	d="
M673.516113,863.499939 
	C673.780029,862.987793 673.961060,862.055908 674.734436,862.543030 
	C674.901917,862.648499 674.668030,863.390991 674.351685,863.955811 
	C673.957642,863.944946 673.830811,863.818420 673.516113,863.499939 
z"/>
<path fill="#000000" opacity="1.000000" stroke="none" 
	d="
M800.888550,824.884888 
	C800.734924,825.889771 800.203857,826.228943 799.419617,825.662476 
	C799.367737,825.624939 799.724915,825.020996 800.111084,824.490845 
	C800.454773,824.430420 800.579285,824.559692 800.888550,824.884888 
z"/>
<path fill="#E43131" opacity="1.000000" stroke="none" 
	d="
M641.253052,413.413208 
	C642.496216,412.593231 642.881592,413.565277 642.897583,414.605316 
	C642.966125,419.065399 642.969055,423.527161 642.926636,427.987671 
	C642.917542,428.945923 642.777222,430.293549 641.506531,430.178070 
	C639.731750,430.016846 640.285278,428.627045 640.735840,427.227448 
	C642.259094,422.574249 641.171448,418.104279 641.253052,413.413208 
z"/>
<path fill="#C51717" opacity="1.000000" stroke="none" 
	d="
M641.047485,413.585876 
	C642.875305,417.972595 641.751587,422.970062 641.847229,427.900543 
	C641.848816,427.984924 641.608887,428.074005 641.481689,428.160889 
	C641.314941,427.910156 641.148193,427.659454 640.934631,427.174805 
	C640.936523,422.639496 640.985168,418.338196 641.047485,413.585876 
z"/>
<path fill="#F13A39" opacity="1.000000" stroke="none" 
	d="
M830.011963,658.170715 
	C829.955627,659.334045 829.900269,660.118408 829.844971,660.902771 
	C829.651855,660.895386 829.458679,660.888000 829.265503,660.880676 
	C829.265503,655.962219 829.265503,651.043762 829.265503,646.125305 
	C829.514648,646.119934 829.763855,646.114563 830.013000,646.109192 
	C830.013000,650.003357 830.013000,653.897583 830.011963,658.170715 
z"/>
<path fill="#C51717" opacity="1.000000" stroke="none" 
	d="
M642.961426,660.961304 
	C641.904541,660.616882 641.059753,660.126221 641.173523,658.880188 
	C641.223022,658.338379 641.624512,657.866882 642.176086,658.122986 
	C643.090759,658.547546 642.869568,659.501953 642.930542,660.612610 
	C642.933289,660.925354 642.995422,660.999084 642.961426,660.961304 
z"/>
</svg>